<svg width="1600" height="900" viewBox="0 0 1600 900" fill="none" xmlns="http://www.w3.org/2000/svg">
  <defs>
    <linearGradient id="bg" x1="0" y1="0" x2="1600" y2="900" gradientUnits="userSpaceOnUse">
      <stop stop-color="#030303"/>
      <stop offset=".55" stop-color="#080808"/>
      <stop offset="1" stop-color="#020202"/>
    </linearGradient>
    <radialGradient id="glow" cx="0" cy="0" r="1" gradientUnits="userSpaceOnUse" gradientTransform="translate(790 440) rotate(-8) scale(470 310)">
      <stop stop-color="#3b82f6" stop-opacity=".26"/>
      <stop offset=".52" stop-color="#3b82f6" stop-opacity=".065"/>
      <stop offset="1" stop-color="#3b82f6" stop-opacity="0"/>
    </radialGradient>
    <linearGradient id="steel" x1="468" y1="260" x2="1152" y2="636" gradientUnits="userSpaceOnUse">
      <stop stop-color="#ffffff" stop-opacity=".68"/>
      <stop offset=".48" stop-color="#ffffff" stop-opacity=".28"/>
      <stop offset="1" stop-color="#ffffff" stop-opacity=".08"/>
    </linearGradient>
    <linearGradient id="blueStroke" x1="476" y1="450" x2="1160" y2="450" gradientUnits="userSpaceOnUse">
      <stop stop-color="#ffffff" stop-opacity=".08"/>
      <stop offset=".52" stop-color="#3b82f6" stop-opacity=".86"/>
      <stop offset="1" stop-color="#ffffff" stop-opacity=".12"/>
    </linearGradient>
    <filter id="soft" x="-20%" y="-20%" width="140%" height="140%" color-interpolation-filters="sRGB">
      <feGaussianBlur stdDeviation="20"/>
    </filter>
    <pattern id="ticks" width="96" height="96" patternUnits="userSpaceOnUse">
      <path d="M0 48H16M48 0V16" stroke="#ffffff" stroke-opacity=".1" stroke-width="1"/>
    </pattern>
  </defs>

  <rect width="1600" height="900" fill="url(#bg)"/>
  <rect width="1600" height="900" fill="url(#glow)"/>
  <rect width="1600" height="900" fill="url(#ticks)" opacity=".18"/>
  <rect x="1" y="1" width="1598" height="898" rx="28" stroke="#181818" stroke-width="2"/>

  <g filter="url(#soft)" opacity=".45">
    <rect x="606" y="238" width="388" height="388" rx="36" stroke="#3b82f6" stroke-width="28"/>
    <path d="M482 562L760 282L1118 360" stroke="#ffffff" stroke-opacity=".18" stroke-width="18" stroke-linecap="round" stroke-linejoin="round"/>
  </g>

  <g stroke="#ffffff" stroke-opacity=".11" stroke-width="1.35" stroke-linecap="round">
    <path d="M252 450H1348"/>
    <path d="M800 172V728"/>
    <path d="M410 274H1190"/>
    <path d="M410 626H1190"/>
    <path d="M524 190L1076 710"/>
    <path d="M1076 190L524 710"/>
  </g>

  <g opacity=".9">
    <rect x="554" y="226" width="492" height="492" rx="34" stroke="url(#steel)" stroke-width="2"/>
    <rect x="628" y="300" width="344" height="344" rx="28" stroke="#ffffff" stroke-opacity=".22" stroke-width="2"/>
    <rect x="700" y="372" width="200" height="200" rx="22" stroke="#ffffff" stroke-opacity=".33" stroke-width="2"/>
    <rect x="750" y="422" width="100" height="100" rx="16" fill="#f8fafc" fill-opacity=".9"/>
    <rect x="770" y="442" width="60" height="60" rx="10" fill="#050505"/>
  </g>

  <g opacity=".72">
    <path d="M476 562L668 370L800 450L1002 282L1164 346" stroke="url(#blueStroke)" stroke-width="2.5" stroke-linecap="round" stroke-linejoin="round"/>
    <path d="M476 562L640 622H1002L1164 346" stroke="#ffffff" stroke-opacity=".18" stroke-width="2" stroke-linecap="round" stroke-linejoin="round"/>
    <path d="M668 370L640 622" stroke="#ffffff" stroke-opacity=".16" stroke-width="2"/>
    <path d="M800 450L1002 622" stroke="#ffffff" stroke-opacity=".12" stroke-width="2"/>
  </g>

  <g opacity=".54">
    <rect x="594" y="266" width="412" height="412" rx="30" fill="#ffffff" fill-opacity=".035"/>
    <rect x="692" y="354" width="262" height="262" rx="24" fill="#ffffff" fill-opacity=".04"/>
    <rect x="812" y="246" width="138" height="138" rx="20" fill="#3b82f6" fill-opacity=".11"/>
    <rect x="626" y="536" width="148" height="148" rx="20" fill="#ffffff" fill-opacity=".055"/>
  </g>

  <g>
    <circle cx="476" cy="562" r="7" fill="#f8fafc" opacity=".66"/>
    <circle cx="668" cy="370" r="7" fill="#f8fafc" opacity=".72"/>
    <circle cx="800" cy="450" r="13" fill="#3b82f6"/>
    <circle cx="1002" cy="282" r="7" fill="#f8fafc" opacity=".72"/>
    <circle cx="1164" cy="346" r="7" fill="#3b82f6"/>
    <circle cx="640" cy="622" r="5" fill="#f8fafc" opacity=".52"/>
    <circle cx="1002" cy="622" r="5" fill="#f8fafc" opacity=".52"/>
  </g>

  <g opacity=".64">
    <rect x="1136" y="318" width="56" height="56" rx="10" fill="#0b0b0b" stroke="#ffffff" stroke-opacity=".16"/>
    <rect x="448" y="534" width="56" height="56" rx="10" fill="#0b0b0b" stroke="#ffffff" stroke-opacity=".16"/>
  </g>
</svg>
